<svg xmlns="http://www.w3.org/2000/svg" viewBox="0 0 241.396 54.331">
  <g id="그룹_73990" data-name="그룹 73990" transform="translate(-839 -192.835)">
    <path id="패스_444" data-name="패스 444" d="M207.628,326.052l15.219-18.733h-8.3A10.218,10.218,0,0,0,206,311.107l-8.012,9.858V293.881h-8.039a3.43,3.43,0,0,0-3.427,3.436v50.525h8.042a3.424,3.424,0,0,0,3.424-3.429V330.968l6.514,8,5.541,6.823a5.163,5.163,0,0,0,4.1,2.053h11.224l-7.256-8.906ZM242.809,338.3a3.084,3.084,0,0,1-3.074-3.079V293.881h-8.046a3.433,3.433,0,0,0-3.432,3.425V337.38c0,6.191,4.279,10.462,10.473,10.462h8.838A3.432,3.432,0,0,0,251,344.412V338.3Z" transform="translate(652.479 -101.046)" fill="#1a1818"/>
    <path id="패스_445" data-name="패스 445" d="M196.131,317.126l.02-.021a.156.156,0,0,1-.026.016Zm53.576-7.641-.009-7.611-.7.752c-.025.014-2.181,2.215-8.365,2.215H211.391c-4.622,0-6.8,1.881-8.45,3.916l-.9,1.107c-.026.035-.058.064-.084.094l-5.8,7.146a13.422,13.422,0,0,1,7.952-2.552h36.527c4.431,0,8.689-1.3,9.037-4.62A2.13,2.13,0,0,0,249.707,309.486Z" transform="translate(655.431 -98.589)" fill="#e50019"/>
    <path id="패스_446" data-name="패스 446" d="M254.584,306.073a18.342,18.342,0,0,0-.213,3.292v5.259h10v-5.259a13.622,13.622,0,0,1,.426-4.193,1.5,1.5,0,0,1,1.468-1.113h3.7a6.252,6.252,0,0,0-.782,2.013,18.345,18.345,0,0,0-.213,3.292v20.229a3.219,3.219,0,0,1-.569,2.2,2.864,2.864,0,0,1-2.084.59H252.428a2.956,2.956,0,0,1-2.108-.59,3.127,3.127,0,0,1-.592-2.2V309.365a12.945,12.945,0,0,1,.45-4.193,1.571,1.571,0,0,1,1.54-1.113h3.648A6.282,6.282,0,0,0,254.584,306.073Zm0,22.125a1.2,1.2,0,0,0,.83.212h7.958a1.109,1.109,0,0,0,.782-.212,1.19,1.19,0,0,0,.213-.83V318.6h-10v8.764A1.19,1.19,0,0,0,254.584,328.2Zm25.938-11.349h5.97v2.986q0,1.183-1.138,1.185h-4.832v21.366q0,1.183-1.136,1.185H275.88V302.305q0-1.183,1.137-1.183h3.505Z" transform="translate(671.912 -98.82)" fill="#3b3c3e"/>
    <path id="패스_447" data-name="패스 447" d="M317.2,332.827v3.127a1.475,1.475,0,0,1-.5,1.183,3.389,3.389,0,0,1-1.728.592,29.284,29.284,0,0,1-3.6.166H280.057v-2.891c0-.79.379-1.182,1.136-1.182h15.114v-7.156h-8.576a2.506,2.506,0,0,1-1.8-.52,2.583,2.583,0,0,1-.522-1.847v-8.906a2.794,2.794,0,0,1,.592-2.015,2.717,2.717,0,0,1,1.966-.591h19.188v-5.212a.546.546,0,0,0-.618-.616H286.5q-1.137,0-1.137-1.185v-2.842h24.16a2.425,2.425,0,0,1,1.755.52,2.583,2.583,0,0,1,.52,1.847v9a2.585,2.585,0,0,1-.52,1.849,2.424,2.424,0,0,1-1.755.52H290.054v5.353a.543.543,0,0,0,.616.616H307.25a12.462,12.462,0,0,0,5.638-.948v3.08a1.41,1.41,0,0,1-.5,1.161,3.651,3.651,0,0,1-1.755.567,28.827,28.827,0,0,1-3.576.166h-6.112v7.156h10.567Q315.491,333.824,317.2,332.827Z" transform="translate(681.236 -98.263)" fill="#3b3c3e"/>
    <path id="패스_448" data-name="패스 448" d="M335.151,324.857a85.066,85.066,0,0,1-9.688,1.114q-5.14.306-11.821.306h-2.274l-.331-3.125v-.144c0-.5.268-.758.8-.758q5.021,0,7.344-.046v-7.913q0-1.183,1.136-1.183h3.363v8.953a74.931,74.931,0,0,0,12.745-1.326l.476,2.368C337.061,324.021,336.48,324.605,335.151,324.857ZM313.5,306.429v-2.986h17.766q2.559,0,2.559,2.465a89.132,89.132,0,0,1-.758,11.559,1.9,1.9,0,0,1-.309.805.768.768,0,0,1-.734.238l-3.411-.286a70.016,70.016,0,0,0,.758-9.994.935.935,0,0,0-.166-.617.763.763,0,0,0-.592-.19H314.495A.877.877,0,0,1,313.5,306.429Zm27.239,24.563a8.054,8.054,0,0,1,0,12.745q-3.124,2.248-9.806,2.249-12.934,0-12.933-8.623a7.385,7.385,0,0,1,3.127-6.371q3.126-2.249,9.806-2.25T340.741,330.992Zm-1.514,6.371a4.049,4.049,0,0,0-1.966-3.624q-1.969-1.251-6.042-1.254H330.6q-4.075,0-6.039,1.254a4.044,4.044,0,0,0-1.966,3.624q0,4.879,8.005,4.879h.616Q339.224,342.242,339.227,337.363Zm10.422-21.506q0,1.183-1.136,1.183h-4.549V326.8c0,.791-.381,1.185-1.136,1.185h-3.555V302.305a1.047,1.047,0,0,1,1.186-1.183h3.505v11.749h5.685Z" transform="translate(690.761 -98.82)" fill="#3b3c3e"/>
    <path id="패스_449" data-name="패스 449" d="M361.126,333.1H374.2a12.632,12.632,0,0,0,5.687-.947v3.079a1.472,1.472,0,0,1-.5,1.185,3.431,3.431,0,0,1-1.728.592,28.962,28.962,0,0,1-3.6.167H342.743v-2.891a1.179,1.179,0,0,1,.309-.876,1.107,1.107,0,0,1,.83-.31h12.6V319.838a1.045,1.045,0,0,1,1.183-1.182h3.46Zm14.309-26.861a102.657,102.657,0,0,1-1.66,20.562,1.479,1.479,0,0,1-.332.8.833.833,0,0,1-.71.19l-3.363-.378a82.418,82.418,0,0,0,1.208-9.1q.4-4.977.4-9.76a.628.628,0,0,0-.758-.758h-21.46a1.073,1.073,0,0,1-.83-.332,1.192,1.192,0,0,1-.309-.852V303.73h25.253A2.242,2.242,0,0,1,375.434,306.242Z" transform="translate(700.508 -98.018)" fill="#3b3c3e"/>
  </g>
</svg>
